<svg width="7" height="12" viewBox="0 0 7 12" fill="none" xmlns="http://www.w3.org/2000/svg">
<path d="M0.22 6.71997C0.0793075 6.57946 0.000175052 6.38882 0 6.18997V5.80997C0.00230401 5.61156 0.081116 5.4217 0.22 5.27997L5.36 0.149974C5.45388 0.055318 5.58168 0.0020752 5.715 0.0020752C5.84832 0.0020752 5.97612 0.055318 6.07 0.149974L6.78 0.859974C6.87406 0.952138 6.92707 1.07828 6.92707 1.20997C6.92707 1.34166 6.87406 1.46781 6.78 1.55997L2.33 5.99997L6.78 10.44C6.87466 10.5339 6.9279 10.6617 6.9279 10.795C6.9279 10.9283 6.87466 11.0561 6.78 11.15L6.07 11.85C5.97612 11.9446 5.84832 11.9979 5.715 11.9979C5.58168 11.9979 5.45388 11.9446 5.36 11.85L0.22 6.71997Z" fill="#BCBCBC"/>
</svg>
