<svg width="7" height="12" viewBox="0 0 7 12" fill="none" xmlns="http://www.w3.org/2000/svg">
<path d="M6.78 6.71997C6.92069 6.57946 6.99982 6.38882 7 6.18997V5.80997C6.9977 5.61156 6.91888 5.4217 6.78 5.27997L1.64 0.149974C1.54612 0.055318 1.41832 0.0020752 1.285 0.0020752C1.15168 0.0020752 1.02388 0.055318 0.93 0.149974L0.22 0.859974C0.125936 0.952138 0.0729284 1.07828 0.0729284 1.20997C0.0729284 1.34166 0.125936 1.46781 0.22 1.55997L4.67 5.99997L0.22 10.44C0.125343 10.5339 0.0721006 10.6617 0.0721006 10.795C0.0721006 10.9283 0.125343 11.0561 0.22 11.15L0.93 11.85C1.02388 11.9446 1.15168 11.9979 1.285 11.9979C1.41832 11.9979 1.54612 11.9446 1.64 11.85L6.78 6.71997Z" fill="#C8154B"/>
</svg>
