<svg width="28" height="28" viewBox="0 0 28 28" fill="none" xmlns="http://www.w3.org/2000/svg">
<path d="M7.84999 2.70301L9.78699 2.11901C10.4263 1.92657 11.1137 1.97326 11.7211 2.25037C12.3285 2.52747 12.8143 3.01607 13.088 3.62501L14.446 6.64501C14.6817 7.16893 14.7474 7.75351 14.6339 8.31668C14.5203 8.87985 14.2333 9.39332 13.813 9.78501L11.746 11.711C11.469 11.974 11.679 12.999 12.691 14.753C13.704 16.508 14.487 17.202 14.848 17.094L17.556 16.266C18.1049 16.0981 18.6926 16.1062 19.2367 16.2891C19.7808 16.472 20.254 16.8206 20.59 17.286L22.52 19.961C22.9098 20.5012 23.0903 21.1645 23.028 21.8277C22.9656 22.4909 22.6647 23.109 22.181 23.567L20.689 24.98C20.2073 25.4361 19.6133 25.7563 18.9675 25.9079C18.3217 26.0595 17.6473 26.0371 17.013 25.843C13.887 24.886 10.992 22.046 8.28899 17.363C5.57999 12.673 4.55699 8.71701 5.26999 5.48501C5.4138 4.83376 5.72868 4.23265 6.18219 3.74364C6.63569 3.25462 7.21141 2.8954 7.84999 2.70301V2.70301Z" fill="#F24E1E"/>
</svg>
