<svg width="36" height="36" viewBox="0 0 36 36" fill="none" xmlns="http://www.w3.org/2000/svg">
<path d="M32.33 6.00001C32.1937 5.98596 32.0563 5.98596 31.92 6.00001H3.92001C3.74056 6.00277 3.56229 6.02968 3.39001 6.08001L17.84 20.47L32.33 6.00001Z" fill="#F24E1E"/>
<path d="M33.81 7.39001L19.25 21.89C18.8753 22.2625 18.3684 22.4716 17.84 22.4716C17.3116 22.4716 16.8047 22.2625 16.43 21.89L1.99999 7.50001C1.95563 7.66306 1.93211 7.83106 1.92999 8.00001V28C1.92999 28.5304 2.14071 29.0392 2.51578 29.4142C2.89085 29.7893 3.39956 30 3.92999 30H31.93C32.4604 30 32.9691 29.7893 33.3442 29.4142C33.7193 29.0392 33.93 28.5304 33.93 28V8.00001C33.922 7.79167 33.8815 7.58585 33.81 7.39001V7.39001ZM5.29999 28H3.90999V26.57L11.18 19.36L12.59 20.77L5.29999 28ZM31.91 28H30.51L23.22 20.77L24.63 19.36L31.9 26.57L31.91 28Z" fill="#F24E1E"/>
</svg>
