<svg width="24" height="24" viewBox="0 0 24 24" fill="none" xmlns="http://www.w3.org/2000/svg">
<path d="M23.0321 9.84634C23.1756 10.6152 23.2537 11.419 23.2537 12.2578C23.2537 18.8192 18.8624 23.4847 12.2299 23.4847C10.7216 23.4851 9.22796 23.1884 7.83437 22.6114C6.44078 22.0344 5.17454 21.1885 4.108 20.1219C3.04145 19.0554 2.19552 17.7891 1.61852 16.3955C1.04153 15.0019 0.74478 13.5083 0.74524 12C0.74478 10.4917 1.04153 8.99806 1.61852 7.60447C2.19552 6.21088 3.04145 4.94463 4.108 3.87809C5.17454 2.81155 6.44078 1.96561 7.83437 1.38862C9.22796 0.811622 10.7216 0.514876 12.2299 0.515336C15.3309 0.515336 17.9221 1.65634 19.9101 3.509L16.6726 6.7465V6.73834C15.4674 5.59033 13.9379 5.00117 12.2299 5.00117C8.44057 5.00117 5.36057 8.2025 5.36057 11.993C5.36057 15.7823 8.44057 18.9907 12.2299 18.9907C15.6681 18.9907 18.0084 17.0248 18.4891 14.3252H12.2299V9.84634H23.0332H23.0321Z" fill="#D7426F"/>
</svg>
