<svg width="32" height="32" viewBox="0 0 32 32" fill="none" xmlns="http://www.w3.org/2000/svg">
<path d="M16 12.6933C15.346 12.6933 14.7067 12.8873 14.1629 13.2506C13.6191 13.6139 13.1953 14.1304 12.945 14.7346C12.6947 15.3388 12.6292 16.0037 12.7568 16.6451C12.8844 17.2865 13.1993 17.8757 13.6618 18.3382C14.1242 18.8006 14.7134 19.1155 15.3549 19.2431C15.9963 19.3707 16.6612 19.3052 17.2654 19.055C17.8696 18.8047 18.386 18.3809 18.7494 17.8371C19.1127 17.2933 19.3066 16.654 19.3066 16C19.3066 15.5658 19.2211 15.1358 19.0549 14.7346C18.8887 14.3334 18.6452 13.9689 18.3381 13.6618C18.0311 13.3548 17.6665 13.1112 17.2654 12.945C16.8642 12.7789 16.4342 12.6933 16 12.6933V12.6933ZM29.24 9.42666C29.2329 8.397 29.0433 7.37675 28.68 6.41332C28.4123 5.70834 27.9983 5.06811 27.465 4.5349C26.9318 4.00169 26.2916 3.58761 25.5866 3.31999C24.6232 2.95661 23.6029 2.767 22.5733 2.75999C20.8533 2.66666 20.3466 2.66666 16 2.66666C11.6533 2.66666 11.1466 2.66666 9.42663 2.75999C8.39697 2.767 7.37672 2.95661 6.41329 3.31999C5.70831 3.58761 5.06808 4.00169 4.53487 4.5349C4.00166 5.06811 3.58758 5.70834 3.31996 6.41332C2.95658 7.37675 2.76697 8.397 2.75996 9.42666C2.66663 11.1467 2.66663 11.6533 2.66663 16C2.66663 20.3467 2.66663 20.8533 2.75996 22.5733C2.77431 23.6066 2.96366 24.63 3.31996 25.6C3.5864 26.3018 4.00013 26.9383 4.53329 27.4667C5.06422 28.0031 5.70581 28.4171 6.41329 28.68C7.37672 29.0434 8.39697 29.233 9.42663 29.24C11.1466 29.3333 11.6533 29.3333 16 29.3333C20.3466 29.3333 20.8533 29.3333 22.5733 29.24C23.6029 29.233 24.6232 29.0434 25.5866 28.68C26.2941 28.4171 26.9357 28.0031 27.4666 27.4667C27.9998 26.9383 28.4135 26.3018 28.68 25.6C29.043 24.6318 29.2326 23.6073 29.24 22.5733C29.3333 20.8533 29.3333 20.3467 29.3333 16C29.3333 11.6533 29.3333 11.1467 29.24 9.42666V9.42666ZM25.8533 20.0933C25.8105 20.9161 25.6349 21.7266 25.3333 22.4933C25.0744 23.1329 24.6896 23.7139 24.2018 24.2018C23.7139 24.6897 23.1329 25.0745 22.4933 25.3333C21.7193 25.6181 20.9043 25.7757 20.08 25.8H11.92C11.0956 25.7757 10.2806 25.6181 9.50663 25.3333C8.84543 25.0876 8.24833 24.6956 7.75996 24.1867C7.27685 23.7083 6.90375 23.1305 6.66663 22.4933C6.3807 21.7201 6.22743 20.9042 6.21329 20.08V11.92C6.22743 11.0958 6.3807 10.2798 6.66663 9.50666C6.91233 8.84546 7.30433 8.24836 7.81329 7.75999C8.29374 7.27949 8.87098 6.90678 9.50663 6.66666C10.2806 6.38186 11.0956 6.22427 11.92 6.19999H20.08C20.9043 6.22427 21.7193 6.38186 22.4933 6.66666C23.1545 6.91237 23.7516 7.30436 24.24 7.81332C24.7231 8.29166 25.0962 8.8695 25.3333 9.50666C25.6181 10.2806 25.7757 11.0956 25.8 11.92V16C25.8 18.7467 25.8933 19.0267 25.8533 20.08V20.0933ZM23.72 10.1733C23.5612 9.74264 23.3109 9.35151 22.9863 9.02694C22.6618 8.70237 22.2706 8.45207 21.84 8.29332C21.2486 8.08834 20.6258 7.98904 20 7.99999H12C11.371 8.00614 10.7481 8.1235 10.16 8.34666C9.73586 8.4982 9.34888 8.73827 9.02474 9.05092C8.70059 9.36358 8.44671 9.74164 8.27996 10.16C8.08633 10.7538 7.99173 11.3755 7.99996 12V20C8.01318 20.6283 8.13032 21.25 8.34663 21.84C8.50538 22.2707 8.75567 22.6618 9.08024 22.9864C9.40482 23.3109 9.79594 23.5612 10.2266 23.72C10.7955 23.9292 11.3942 24.0462 12 24.0667H20C20.6289 24.0605 21.2519 23.9431 21.84 23.72C22.2706 23.5612 22.6618 23.3109 22.9863 22.9864C23.3109 22.6618 23.5612 22.2707 23.72 21.84C23.9431 21.2519 24.0605 20.629 24.0666 20V12C24.067 11.3704 23.9494 10.7463 23.72 10.16V10.1733ZM16 21.0933C15.3317 21.0933 14.67 20.9615 14.0528 20.7054C13.4356 20.4492 12.875 20.0738 12.4031 19.6007C11.9312 19.1276 11.5573 18.566 11.3028 17.9481C11.0483 17.3302 10.9182 16.6682 10.92 16C10.92 14.9921 11.219 14.0068 11.7793 13.1689C12.3395 12.331 13.1358 11.6782 14.0673 11.2931C14.9987 10.908 16.0235 10.8079 17.0119 11.0055C18.0002 11.2031 18.9078 11.6895 19.6195 12.4032C20.3313 13.1168 20.8154 14.0256 21.0104 15.0145C21.2054 16.0034 21.1026 17.0279 20.7151 17.9584C20.3275 18.8888 19.6726 19.6834 18.8333 20.2414C17.9939 20.7995 17.0079 21.096 16 21.0933V21.0933ZM21.3333 11.9067C21.0386 11.8755 20.7658 11.7363 20.5675 11.516C20.3693 11.2956 20.2596 11.0097 20.2596 10.7133C20.2596 10.4169 20.3693 10.131 20.5675 9.9107C20.7658 9.69036 21.0386 9.55119 21.3333 9.51999C21.628 9.55119 21.9008 9.69036 22.099 9.9107C22.2973 10.131 22.407 10.4169 22.407 10.7133C22.407 11.0097 22.2973 11.2956 22.099 11.516C21.9008 11.7363 21.628 11.8755 21.3333 11.9067Z" fill="#F24E1E"/>
</svg>
