<svg width="155" height="48" viewBox="0 0 155 48" fill="none" xmlns="http://www.w3.org/2000/svg">
<mask id="mask0_35_27" style="mask-type:alpha" maskUnits="userSpaceOnUse" x="0" y="0" width="48" height="48">
<circle cx="24" cy="24" r="24" fill="#FD7402"/>
</mask>
<g mask="url(#mask0_35_27)">
<circle r="24" fill="#01A100"/>
<circle cx="48" r="24" fill="#FBBC04"/>
<circle cx="48" cy="48" r="24" fill="#C8154B"/>
<circle cy="48" r="24" fill="#2E489A"/>
</g>
<path d="M81.2 18.16L77.312 34H73.712L71.384 22.624L69.056 34H65.456L61.88 18.16H64.712L67.52 32.2L70.304 18.16H72.968L75.776 32.2L78.56 18.16H81.2ZM88.4396 32.896C88.1356 33.456 87.6876 33.864 87.0956 34.12C86.5196 34.392 85.8636 34.528 85.1276 34.528C84.0236 34.528 83.0956 34.192 82.3436 33.52C81.6076 32.848 81.2396 31.976 81.2396 30.904C81.2396 28.312 83.5516 27.016 88.1756 27.016V24.928C88.1756 24.128 88.0556 23.536 87.8156 23.152C87.5756 22.752 87.1196 22.552 86.4476 22.552C85.8876 22.552 85.4236 22.704 85.0556 23.008C84.6876 23.296 84.5036 23.704 84.5036 24.232C84.5036 24.568 84.5676 24.928 84.6956 25.312C84.4716 25.488 84.1516 25.576 83.7356 25.576C83.1596 25.576 82.7036 25.432 82.3676 25.144C82.0316 24.856 81.8636 24.44 81.8636 23.896C81.8636 23.128 82.2956 22.504 83.1596 22.024C84.0236 21.528 85.1756 21.28 86.6156 21.28C87.6716 21.28 88.5036 21.44 89.1116 21.76C89.7196 22.064 90.1516 22.544 90.4076 23.2C90.6796 23.84 90.8156 24.704 90.8156 25.792V32.032C90.8156 32.816 91.0636 33.344 91.5596 33.616C91.4316 33.856 91.2396 34.04 90.9836 34.168C90.7436 34.296 90.4636 34.36 90.1436 34.36C89.6796 34.36 89.2956 34.232 88.9916 33.976C88.6876 33.704 88.5036 33.344 88.4396 32.896ZM86.0636 32.92C86.7676 32.92 87.2956 32.656 87.6476 32.128C87.9996 31.584 88.1756 30.912 88.1756 30.112V28.216C85.4716 28.216 84.1196 29.08 84.1196 30.808C84.1196 31.448 84.2876 31.96 84.6236 32.344C84.9756 32.728 85.4556 32.92 86.0636 32.92ZM102.504 21.76L97.0556 38.632L94.4156 38.32L96.7916 32.848H95.5916L92.5436 21.76H95.2796L97.5596 31.24L100.008 21.76H102.504ZM104.084 21.76L106.292 21.472L106.412 23.632C106.716 22.864 107.18 22.28 107.804 21.88C108.444 21.48 109.188 21.28 110.036 21.28C110.98 21.28 111.716 21.472 112.244 21.856C112.772 22.224 113.148 22.776 113.372 23.512C113.996 22.024 115.132 21.28 116.78 21.28C118.124 21.28 119.06 21.656 119.588 22.408C120.116 23.144 120.38 24.272 120.38 25.792V32.032C120.38 32.816 120.628 33.344 121.124 33.616C120.996 33.856 120.788 34.04 120.5 34.168C120.212 34.296 119.908 34.36 119.588 34.36C118.964 34.36 118.5 34.184 118.196 33.832C117.892 33.48 117.74 32.984 117.74 32.344V26.128C117.74 25.12 117.628 24.368 117.404 23.872C117.18 23.376 116.684 23.128 115.916 23.128C115.004 23.128 114.396 23.56 114.092 24.424C113.788 25.288 113.636 26.4 113.636 27.76V34H110.996V26.128C110.996 25.12 110.884 24.368 110.66 23.872C110.436 23.376 109.94 23.128 109.172 23.128C108.196 23.128 107.54 23.56 107.204 24.424C106.884 25.288 106.724 26.4 106.724 27.76V34H104.084V21.76ZM127.93 21.28C129.722 21.28 131.05 21.864 131.914 23.032C132.778 24.184 133.21 25.744 133.21 27.712C133.21 29.808 132.794 31.472 131.962 32.704C131.13 33.92 129.786 34.528 127.93 34.528C126.106 34.528 124.77 33.944 123.922 32.776C123.09 31.608 122.674 30 122.674 27.952C122.674 25.968 123.106 24.36 123.97 23.128C124.834 21.896 126.154 21.28 127.93 21.28ZM127.93 33.088C128.922 33.088 129.57 32.6 129.874 31.624C130.178 30.648 130.33 29.384 130.33 27.832C130.33 26.408 130.162 25.2 129.826 24.208C129.506 23.216 128.874 22.72 127.93 22.72C126.346 22.72 125.554 24.424 125.554 27.832C125.554 29.384 125.698 30.648 125.986 31.624C126.29 32.6 126.938 33.088 127.93 33.088ZM139.833 23.128C139.145 23.128 138.697 23.592 138.489 24.52C138.297 25.432 138.201 26.528 138.201 27.808V34H135.561V21.76L137.769 21.472L137.889 23.632C138.113 22.912 138.505 22.344 139.065 21.928C139.625 21.496 140.273 21.28 141.009 21.28C141.809 21.28 142.441 21.512 142.905 21.976C143.385 22.44 143.625 23.072 143.625 23.872C143.625 25.168 143.001 25.816 141.753 25.816C141.337 25.816 141.017 25.728 140.793 25.552C140.905 25.136 140.961 24.776 140.961 24.472C140.961 23.576 140.585 23.128 139.833 23.128ZM152.757 30.616C153.125 30.792 153.309 31.136 153.309 31.648C153.309 32.224 153.117 32.736 152.733 33.184C152.349 33.616 151.853 33.944 151.245 34.168C150.637 34.408 150.021 34.528 149.397 34.528C147.637 34.528 146.333 33.96 145.485 32.824C144.637 31.672 144.213 30.128 144.213 28.192C144.213 26.128 144.669 24.464 145.581 23.2C146.509 21.92 147.909 21.28 149.781 21.28C150.965 21.28 151.917 21.592 152.637 22.216C153.357 22.824 153.717 23.688 153.717 24.808C153.717 26.2 153.229 27.176 152.253 27.736C151.293 28.296 149.981 28.576 148.317 28.576C147.853 28.576 147.413 28.56 146.997 28.528C147.045 29.792 147.253 30.8 147.621 31.552C148.005 32.304 148.677 32.68 149.637 32.68C150.341 32.68 150.957 32.504 151.485 32.152C152.029 31.784 152.453 31.272 152.757 30.616ZM149.397 22.648C148.533 22.648 147.925 23.104 147.573 24.016C147.221 24.912 147.029 26.016 146.997 27.328C147.477 27.36 147.829 27.376 148.053 27.376C150.069 27.376 151.077 26.568 151.077 24.952C151.077 24.296 150.933 23.752 150.645 23.32C150.373 22.872 149.957 22.648 149.397 22.648Z" fill="black"/>
</svg>
