<svg width="274" height="85" viewBox="0 0 274 85" fill="none" xmlns="http://www.w3.org/2000/svg">
<mask id="mask0_4_84" style="mask-type:alpha" maskUnits="userSpaceOnUse" x="0" y="0" width="85" height="85">
<circle cx="42.5" cy="42.5" r="42.5" fill="#FD7402"/>
</mask>
<g mask="url(#mask0_4_84)">
<circle r="42.5" fill="#01A100"/>
<circle cx="85" r="42.5" fill="#FBBC04"/>
<circle cx="85" cy="85" r="42.5" fill="#C8154B"/>
<circle cy="85" r="42.5" fill="#2E489A"/>
</g>
<path d="M143.792 30.8875L136.907 58.9375H130.532L126.409 38.7925L122.287 58.9375H115.912L109.579 30.8875H114.594L119.567 55.75L124.497 30.8875H129.214L134.187 55.75L139.117 30.8875H143.792ZM156.612 56.9825C156.073 57.9742 155.28 58.6967 154.232 59.15C153.212 59.6317 152.05 59.8725 150.747 59.8725C148.792 59.8725 147.148 59.2775 145.817 58.0875C144.513 56.8975 143.862 55.3533 143.862 53.455C143.862 48.865 147.956 46.57 156.144 46.57V42.8725C156.144 41.4558 155.932 40.4075 155.507 39.7275C155.082 39.0192 154.274 38.665 153.084 38.665C152.093 38.665 151.271 38.9342 150.619 39.4725C149.968 39.9825 149.642 40.705 149.642 41.64C149.642 42.235 149.755 42.8725 149.982 43.5525C149.585 43.8642 149.018 44.02 148.282 44.02C147.262 44.02 146.454 43.765 145.859 43.255C145.264 42.745 144.967 42.0083 144.967 41.045C144.967 39.685 145.732 38.58 147.262 37.73C148.792 36.8517 150.832 36.4125 153.382 36.4125C155.252 36.4125 156.725 36.6958 157.802 37.2625C158.878 37.8008 159.643 38.6508 160.097 39.8125C160.578 40.9458 160.819 42.4758 160.819 44.4025V55.4525C160.819 56.8408 161.258 57.7758 162.137 58.2575C161.91 58.6825 161.57 59.0083 161.117 59.235C160.692 59.4617 160.196 59.575 159.629 59.575C158.808 59.575 158.128 59.3483 157.589 58.895C157.051 58.4133 156.725 57.7758 156.612 56.9825ZM152.404 57.025C153.651 57.025 154.586 56.5575 155.209 55.6225C155.833 54.6592 156.144 53.4692 156.144 52.0525V48.695C151.356 48.695 148.962 50.225 148.962 53.285C148.962 54.4183 149.259 55.325 149.854 56.005C150.478 56.685 151.328 57.025 152.404 57.025ZM181.517 37.2625L171.869 67.14L167.194 66.5875L171.402 56.8975H169.277L163.879 37.2625H168.724L172.762 54.05L177.097 37.2625H181.517ZM184.315 37.2625L188.225 36.7525L188.438 40.5775C188.976 39.2175 189.798 38.1833 190.903 37.475C192.036 36.7667 193.354 36.4125 194.855 36.4125C196.527 36.4125 197.83 36.7525 198.765 37.4325C199.7 38.0842 200.366 39.0617 200.763 40.365C201.868 37.73 203.88 36.4125 206.798 36.4125C209.178 36.4125 210.835 37.0783 211.77 38.41C212.705 39.7133 213.173 41.7108 213.173 44.4025V55.4525C213.173 56.8408 213.612 57.7758 214.49 58.2575C214.264 58.6825 213.895 59.0083 213.385 59.235C212.875 59.4617 212.337 59.575 211.77 59.575C210.665 59.575 209.844 59.2633 209.305 58.64C208.767 58.0167 208.498 57.1383 208.498 56.005V44.9975C208.498 43.2125 208.3 41.8808 207.903 41.0025C207.506 40.1242 206.628 39.685 205.268 39.685C203.653 39.685 202.576 40.45 202.038 41.98C201.5 43.51 201.23 45.4792 201.23 47.8875V58.9375H196.555V44.9975C196.555 43.2125 196.357 41.8808 195.96 41.0025C195.564 40.1242 194.685 39.685 193.325 39.685C191.597 39.685 190.435 40.45 189.84 41.98C189.274 43.51 188.99 45.4792 188.99 47.8875V58.9375H184.315V37.2625ZM226.543 36.4125C229.716 36.4125 232.068 37.4467 233.598 39.515C235.128 41.555 235.893 44.3175 235.893 47.8025C235.893 51.5142 235.156 54.4608 233.683 56.6425C232.21 58.7958 229.83 59.8725 226.543 59.8725C223.313 59.8725 220.947 58.8383 219.446 56.77C217.972 54.7017 217.236 51.8542 217.236 48.2275C217.236 44.7142 218.001 41.8667 219.531 39.685C221.061 37.5033 223.398 36.4125 226.543 36.4125ZM226.543 57.3225C228.3 57.3225 229.447 56.4583 229.986 54.73C230.524 53.0017 230.793 50.7633 230.793 48.015C230.793 45.4933 230.496 43.3542 229.901 41.5975C229.334 39.8408 228.215 38.9625 226.543 38.9625C223.738 38.9625 222.336 41.98 222.336 48.015C222.336 50.7633 222.591 53.0017 223.101 54.73C223.639 56.4583 224.786 57.3225 226.543 57.3225ZM247.62 39.685C246.402 39.685 245.608 40.5067 245.24 42.15C244.9 43.765 244.73 45.7058 244.73 47.9725V58.9375H240.055V37.2625L243.965 36.7525L244.178 40.5775C244.574 39.3025 245.268 38.2967 246.26 37.56C247.252 36.795 248.399 36.4125 249.703 36.4125C251.119 36.4125 252.238 36.8233 253.06 37.645C253.91 38.4667 254.335 39.5858 254.335 41.0025C254.335 43.2975 253.23 44.445 251.02 44.445C250.283 44.445 249.717 44.2892 249.32 43.9775C249.518 43.2408 249.618 42.6033 249.618 42.065C249.618 40.4783 248.952 39.685 247.62 39.685ZM270.508 52.945C271.159 53.2567 271.485 53.8658 271.485 54.7725C271.485 55.7925 271.145 56.6992 270.465 57.4925C269.785 58.2575 268.907 58.8383 267.83 59.235C266.754 59.66 265.663 59.8725 264.558 59.8725C261.441 59.8725 259.132 58.8667 257.63 56.855C256.129 54.815 255.378 52.0808 255.378 48.6525C255.378 44.9975 256.185 42.0508 257.8 39.8125C259.444 37.5458 261.923 36.4125 265.238 36.4125C267.334 36.4125 269.02 36.965 270.295 38.07C271.57 39.1467 272.208 40.6767 272.208 42.66C272.208 45.125 271.344 46.8533 269.615 47.845C267.915 48.8367 265.592 49.3325 262.645 49.3325C261.824 49.3325 261.044 49.3042 260.308 49.2475C260.393 51.4858 260.761 53.2708 261.413 54.6025C262.093 55.9342 263.283 56.6 264.983 56.6C266.229 56.6 267.32 56.2883 268.255 55.665C269.219 55.0133 269.969 54.1067 270.508 52.945ZM264.558 38.835C263.028 38.835 261.951 39.6425 261.328 41.2575C260.704 42.8442 260.364 44.7992 260.308 47.1225C261.158 47.1792 261.781 47.2075 262.178 47.2075C265.748 47.2075 267.533 45.7767 267.533 42.915C267.533 41.7533 267.278 40.79 266.768 40.025C266.286 39.2317 265.549 38.835 264.558 38.835Z" fill="white"/>
</svg>
