<svg width="40" height="40" viewBox="0 0 40 40" fill="none" xmlns="http://www.w3.org/2000/svg">
<path d="M38.7072 14.0851L26.7159 12.2602L21.3555 0.880338C21.2091 0.568764 20.9683 0.316538 20.6707 0.163224C19.9245 -0.222535 19.0177 0.0989307 18.6446 0.880338L13.2843 12.2602L1.29303 14.0851C0.962436 14.1346 0.660175 14.2978 0.428758 14.5451C0.148986 14.8462 -0.00518049 15.2513 0.000132928 15.6714C0.00544635 16.0915 0.169805 16.4922 0.457094 16.7854L9.1329 25.643L7.0832 38.1505C7.03514 38.4415 7.06588 38.7407 7.17195 39.0143C7.27802 39.2879 7.45518 39.5249 7.68332 39.6984C7.91147 39.8719 8.18148 39.975 8.46273 39.996C8.74399 40.017 9.02524 39.9551 9.27459 39.8172L20.0001 33.9121L30.7256 39.8172C31.0184 39.9804 31.3585 40.0348 31.6843 39.9754C32.5061 39.8271 33.0587 39.0111 32.917 38.1505L30.8673 25.643L39.5431 16.7854C39.7792 16.5431 39.9351 16.2266 39.9823 15.8804C40.1098 15.0149 39.5337 14.2137 38.7072 14.0851V14.0851Z" fill="#F24E1E"/>
</svg>
