<svg width="40" height="40" viewBox="0 0 40 40" fill="none" xmlns="http://www.w3.org/2000/svg">
<path d="M18.4567 4.38834C18.99 2.98167 21.0083 2.98167 21.5433 4.38834L24.9933 13.945C25.1137 14.2563 25.3256 14.5238 25.6012 14.7122C25.8767 14.9005 26.2029 15.0009 26.5367 15H35.015C36.5817 15 37.265 16.95 36.0333 17.905L30 23.3333C29.7297 23.5411 29.5322 23.8291 29.4358 24.1561C29.3394 24.4831 29.349 24.8322 29.4633 25.1533L31.6667 34.4917C32.2033 35.9917 30.4667 37.28 29.1533 36.3567L20.9583 31.1567C20.6777 30.9594 20.343 30.8536 20 30.8536C19.657 30.8536 19.3223 30.9594 19.0417 31.1567L10.8467 36.3567C9.535 37.28 7.79667 35.99 8.33334 34.4917L10.5367 25.1533C10.651 24.8322 10.6606 24.4831 10.5642 24.1561C10.4678 23.8291 10.2703 23.5411 10 23.3333L3.96667 17.905C2.73334 16.95 3.42 15 4.98334 15H13.4617C13.7955 15.0011 14.1218 14.9008 14.3974 14.7125C14.673 14.5241 14.8848 14.2564 15.005 13.945L18.455 4.38834H18.4567Z" stroke="#FF9A62" stroke-width="2" stroke-linecap="round" stroke-linejoin="round"/>
</svg>
