<svg width="32" height="32" viewBox="0 0 32 32" fill="none" xmlns="http://www.w3.org/2000/svg">
<path d="M28.32 8.35839C27.3974 8.76711 26.4188 9.03526 25.4167 9.15391C26.4722 8.52236 27.2621 7.52856 27.6391 6.35775C26.6469 6.94672 25.5613 7.36146 24.4292 7.58399C23.9562 7.07948 23.3846 6.67749 22.7499 6.40293C22.1151 6.12837 21.4308 5.98708 20.7392 5.98783C17.9476 5.98783 15.6839 8.25087 15.6839 11.0432C15.6839 11.439 15.7287 11.8253 15.8151 12.1955C11.6135 11.9846 7.88868 9.97183 5.39524 6.91295C4.94566 7.68449 4.70942 8.56174 4.71076 9.45471C4.71009 10.287 4.91504 11.1066 5.30738 11.8407C5.69972 12.5747 6.26731 13.2005 6.95972 13.6624C6.15706 13.6369 5.3721 13.4201 4.67012 13.0301C4.66948 13.0512 4.66948 13.072 4.66948 13.0937C4.66948 15.5424 6.41188 17.5856 8.7242 18.0505C7.97964 18.2521 7.19898 18.2817 6.44132 18.1369C7.08452 20.1449 8.9514 21.607 11.1636 21.648C9.37281 23.0533 7.16148 23.8155 4.88516 23.8121C4.47716 23.8121 4.07492 23.7885 3.67908 23.7414C5.99054 25.2266 8.68072 26.0149 11.4282 26.0121C20.7268 26.0121 25.8116 18.3094 25.8116 11.6297C25.8116 11.4109 25.8064 11.1923 25.7968 10.975C26.7871 10.2601 27.6416 9.37397 28.32 8.35839V8.35839Z" fill="#F24E1E"/>
</svg>
