<svg width="40" height="40" viewBox="0 0 40 40" fill="none" xmlns="http://www.w3.org/2000/svg">
<path d="M20 3.33334C15.5972 3.38948 11.3905 5.16346 8.27695 8.27698C5.16344 11.3905 3.38946 15.5972 3.33331 20C3.35389 22.5649 3.96618 25.0904 5.1225 27.3799C6.27882 29.6694 7.94796 31.6611 9.99998 33.2V33.3333H10.1666C12.9886 35.4958 16.4447 36.6678 20 36.6678C23.5552 36.6678 27.0113 35.4958 29.8333 33.3333H30V33.2C32.052 31.6611 33.7211 29.6694 34.8775 27.3799C36.0338 25.0904 36.6461 22.5649 36.6666 20C36.6105 15.5972 34.8365 11.3905 31.723 8.27698C28.6095 5.16346 24.4028 3.38948 20 3.33334V3.33334ZM13.45 31.55C13.6933 30.4357 14.3102 29.4381 15.1985 28.7227C16.0867 28.0073 17.1928 27.617 18.3333 27.6167H21.6666C22.8072 27.617 23.9133 28.0073 24.8015 28.7227C25.6897 29.4381 26.3067 30.4357 26.55 31.55C24.5648 32.718 22.3033 33.3339 20 33.3339C17.6966 33.3339 15.4352 32.718 13.45 31.55V31.55ZM29.35 29.4C28.716 27.8849 27.6485 26.5909 26.2815 25.6806C24.9145 24.7703 23.309 24.2842 21.6666 24.2833H18.3333C16.6909 24.2842 15.0854 24.7703 13.7184 25.6806C12.3515 26.5909 11.2839 27.8849 10.65 29.4C9.40109 28.1717 8.40648 26.7092 7.723 25.0964C7.03952 23.4835 6.68057 21.7517 6.66665 20C6.70988 16.4772 8.12851 13.1109 10.6197 10.6197C13.1109 8.12854 16.4772 6.7099 20 6.66667C23.5228 6.7099 26.8891 8.12854 29.3803 10.6197C31.8714 13.1109 33.2901 16.4772 33.3333 20C33.3194 21.7517 32.9604 23.4835 32.277 25.0964C31.5935 26.7092 30.5989 28.1717 29.35 29.4V29.4Z" fill="#FF9A62"/>
<path d="M20 10C19.1189 9.97947 18.2428 10.1379 17.4247 10.4656C16.6066 10.7934 15.8634 11.2837 15.2402 11.9069C14.617 12.5301 14.1267 13.2732 13.799 14.0914C13.4712 14.9095 13.3128 15.7856 13.3333 16.6667C13.3128 17.5478 13.4712 18.4239 13.799 19.242C14.1267 20.0601 14.617 20.8032 15.2402 21.4264C15.8634 22.0496 16.6066 22.5399 17.4247 22.8677C18.2428 23.1954 19.1189 23.3539 20 23.3333C20.8811 23.3539 21.7572 23.1954 22.5753 22.8677C23.3934 22.5399 24.1365 22.0496 24.7597 21.4264C25.3829 20.8032 25.8732 20.0601 26.201 19.242C26.5288 18.4239 26.6872 17.5478 26.6666 16.6667C26.6872 15.7856 26.5288 14.9095 26.201 14.0914C25.8732 13.2732 25.3829 12.5301 24.7597 11.9069C24.1365 11.2837 23.3934 10.7934 22.5753 10.4656C21.7572 10.1379 20.8811 9.97947 20 10V10ZM20 20C19.5566 20.0214 19.1136 19.9499 18.6994 19.79C18.2853 19.63 17.9092 19.3852 17.5953 19.0713C17.2814 18.7574 17.0366 18.3813 16.8767 17.9672C16.7168 17.5531 16.6452 17.1101 16.6666 16.6667C16.6452 16.2232 16.7168 15.7802 16.8767 15.3661C17.0366 14.952 17.2814 14.5759 17.5953 14.262C17.9092 13.9481 18.2853 13.7033 18.6994 13.5434C19.1136 13.3834 19.5566 13.3119 20 13.3333C20.4434 13.3119 20.8864 13.3834 21.3005 13.5434C21.7146 13.7033 22.0907 13.9481 22.4046 14.262C22.7186 14.5759 22.9633 14.952 23.1233 15.3661C23.2832 15.7802 23.3547 16.2232 23.3333 16.6667C23.3547 17.1101 23.2832 17.5531 23.1233 17.9672C22.9633 18.3813 22.7186 18.7574 22.4046 19.0713C22.0907 19.3852 21.7146 19.63 21.3005 19.79C20.8864 19.9499 20.4434 20.0214 20 20Z" fill="#FF9A62"/>
</svg>
